<svg width="512" height="512" viewBox="0 0 512 512" fill="none" xmlns="http://www.w3.org/2000/svg">
<g clip-path="url(#clip0_328_28)">
<rect width="512" height="512" rx="112" fill="url(#paint0_linear_328_28)"/>
<path d="M147.31 377.429C143.364 384.032 135.245 387.044 128.36 383.629C104.176 371.635 86.1952 351.511 76.6626 325.485C65.594 295.265 66.5396 258.79 79.3514 221.768C92.1632 184.745 116.118 149.264 147.469 120.875C178.82 92.4862 215.797 72.7913 252.616 64.8718C289.435 56.9523 324.018 61.2551 350.954 77.1068C377.89 92.9586 395.66 119.465 401.484 152.479C407.307 185.493 400.855 223.152 383.138 259.564C368.021 290.632 345.429 319.297 318.084 342.341C310.618 348.632 299.451 346.061 294.826 337.457L283.331 316.07C279.507 308.955 281.588 300.169 287.66 294.849C303.037 281.374 315.753 264.92 324.396 247.156C335.027 225.308 338.898 202.713 335.404 182.905C331.91 163.096 321.248 147.192 305.086 137.681C288.924 128.17 268.175 125.589 246.083 130.34C223.992 135.092 201.806 146.909 182.995 163.942C164.185 180.976 149.812 202.264 142.125 224.478C134.438 246.691 133.87 268.576 140.511 286.708C144.83 298.499 152.039 308.271 161.557 315.448C169.681 321.574 173.956 332.84 168.734 341.579L147.31 377.429Z" fill="url(#paint1_linear_328_28)"/>
<path d="M247.721 296.166C241.408 289.866 241.399 279.631 247.701 273.319L253.595 267.416C259.897 261.105 270.116 261.114 276.407 267.436L426.3 418.085C432.575 424.391 432.566 434.596 426.28 440.891L420.907 446.272C414.621 452.568 404.432 452.577 398.135 446.292L247.721 296.166Z" fill="url(#paint2_linear_328_28)"/>
<path d="M224.198 179.313C224.198 170.399 231.414 163.173 240.314 163.173H262.877C271.777 163.173 278.993 170.399 278.993 179.313V282.615C278.993 291.529 271.777 298.756 262.877 298.756H240.314C231.414 298.756 224.198 291.529 224.198 282.615V179.313Z" fill="url(#paint3_linear_328_28)"/>
</g>
<defs>
<linearGradient id="paint0_linear_328_28" x1="256" y1="0" x2="256" y2="512" gradientUnits="userSpaceOnUse">
<stop stop-color="#4D00BC"/>
<stop offset="1" stop-color="#812AFD"/>
</linearGradient>
<linearGradient id="paint1_linear_328_28" x1="250" y1="256" x2="223.869" y2="618.625" gradientUnits="userSpaceOnUse">
<stop stop-color="white"/>
<stop offset="1" stop-color="#5F5D5D"/>
</linearGradient>
<linearGradient id="paint2_linear_328_28" x1="250" y1="256" x2="223.869" y2="618.625" gradientUnits="userSpaceOnUse">
<stop stop-color="white"/>
<stop offset="1" stop-color="#5F5D5D"/>
</linearGradient>
<linearGradient id="paint3_linear_328_28" x1="250" y1="256" x2="223.869" y2="618.625" gradientUnits="userSpaceOnUse">
<stop stop-color="white"/>
<stop offset="1" stop-color="#5F5D5D"/>
</linearGradient>
<clipPath id="clip0_328_28">
<rect width="512" height="512" fill="white"/>
</clipPath>
</defs>
</svg>
